<?xml version="1.0" encoding="UTF-8" standalone="no"?>
<!DOCTYPE svg PUBLIC "-//W3C//DTD SVG 1.1//EN" "http://www.w3.org/Graphics/SVG/1.1/DTD/svg11.dtd">
<svg width="100%" height="100%" viewBox="0 0 249 177" version="1.1" xmlns="http://www.w3.org/2000/svg" xmlns:xlink="http://www.w3.org/1999/xlink" xml:space="preserve" xmlns:serif="http://www.serif.com/" style="fill-rule:evenodd;clip-rule:evenodd;stroke-linejoin:round;stroke-miterlimit:2;">
    <g id="Artboard1" transform="matrix(1,0,0,0.982737,-0.0879499,1.16207)">
        <rect x="0.088" y="-1.182" width="248.85" height="179.483" style="fill:none;"/>
        <g transform="matrix(7.09798,0,0,7.22266,-2377.5,-2601.44)">
            <g id="layer1">
                <path id="path2484" d="M366.522,373.348L366.019,371.412C365.825,370.666 366.079,369.936 366.719,369.876C367.228,369.828 367.638,370.366 367.638,370.84C367.638,371.796 367.086,372.57 366.871,372.88C366.818,372.958 366.687,373.13 366.522,373.348ZM345.486,368.126L345.717,370.463C345.587,370.47 345.463,370.5 345.347,370.541L344.221,369.693L346.642,364.494L346.864,367.16L358.042,367.16L358.265,364.494L360.686,369.693L359.559,370.541C359.445,370.5 359.319,370.47 359.192,370.463L359.42,368.126L345.486,368.126ZM347.741,379.709C347.653,379.494 347.567,379.262 347.492,379.006L356.295,379.006L357.025,379.709L347.741,379.709ZM356.052,381.203L348.717,381.203C348.512,381 348.323,380.763 348.149,380.5L356.665,380.5C356.502,380.716 356.31,380.953 356.052,381.203ZM352.496,382.782C351.605,382.782 350.647,382.604 349.659,381.995L355.203,381.995C354.515,382.465 353.391,382.782 352.496,382.782ZM347.17,377.511L354.744,377.511L355.475,378.213L347.296,378.213C347.247,377.99 347.208,377.751 347.17,377.511ZM346.99,376.019L353.192,376.019L353.921,376.719L347.062,376.719C347.035,376.489 347.008,376.257 346.99,376.019ZM346.879,374.528L351.643,374.528L352.369,375.228L346.93,375.228C346.914,374.993 346.897,374.76 346.879,374.528ZM346.773,373.032L350.088,373.032L350.819,373.735L346.823,373.735C346.807,373.497 346.79,373.256 346.773,373.032ZM347.232,371.537L348.538,371.537L349.268,372.238L347.207,372.238C347.246,372.114 347.273,371.987 347.273,371.847C347.273,371.74 347.256,371.636 347.232,371.537ZM346.605,370.684C346.513,370.043 346.455,369.401 346.455,369.401L347.714,370.745L346.681,370.745C346.657,370.727 346.632,370.7 346.605,370.684ZM347.771,362.241L347.815,363.207L348.37,363.207L348.325,362.241L348.892,362.241L348.961,363.74L347.293,363.74L347.199,362.241L347.771,362.241ZM349.02,365.063L347.379,365.063L347.329,364.284L348.982,364.284L349.02,365.063ZM349.952,362.241L349.985,363.207L350.535,363.207L350.503,362.241L351.04,362.241L351.071,363.74L349.513,363.74L349.464,362.241L349.952,362.241ZM351.1,365.063L349.559,365.063L349.533,364.284L351.083,364.284L351.1,365.063ZM352.156,362.241L352.159,363.207L352.754,363.207L352.754,362.241L353.27,362.241L353.251,363.74L351.657,363.74L351.637,362.241L352.156,362.241ZM353.825,364.284L355.375,364.284L355.349,365.063L353.806,365.063L353.825,364.284ZM353.867,362.241L354.404,362.241L354.371,363.207L354.922,363.207L354.955,362.241L355.444,362.241L355.393,363.74L353.836,363.74L353.867,362.241ZM351.661,364.284L353.246,364.284L353.235,365.063L351.674,365.063L351.661,364.284ZM347.412,365.61L357.495,365.61L357.435,366.569L347.472,366.569L347.412,365.61ZM355.925,364.284L357.578,364.284L357.531,365.063L355.888,365.063L355.925,364.284ZM356.016,362.241L356.582,362.241L356.538,363.207L357.092,363.207L357.139,362.241L357.709,362.241L357.615,363.74L355.946,363.74L356.016,362.241ZM338.888,371.412L338.385,373.348C338.221,373.13 338.09,372.958 338.036,372.88C337.822,372.57 337.272,371.796 337.272,370.84C337.272,370.366 337.68,369.828 338.19,369.876C338.829,369.936 339.081,370.666 338.888,371.412ZM367.423,375.761C367.344,375.763 367.266,375.778 367.194,375.798L366.805,374.399L367.003,374.145C367.593,373.376 367.947,372.931 368.212,372.421C368.621,371.641 368.567,370.865 368.435,370.375C368.14,369.274 367.272,369.015 366.754,369.042C365.979,369.079 365.505,369.509 365.308,370.002C365.095,370.532 365.133,371.078 365.23,371.472L365.909,374.177C365.701,374.448 365.52,374.733 365.397,374.888L364.11,369.88L366.981,367.763C368.629,366.553 368.615,364.607 368.077,363.556C367.565,362.551 366.837,362.043 366.207,361.812C366.019,361.74 365.895,361.703 365.778,361.677C365.773,361.591 365.77,361.529 365.768,361.502C365.757,361.371 365.603,361.313 365.471,361.286C365.18,361.222 365.095,361.345 365.095,361.388L365.087,361.563C364.385,361.486 362.887,361.495 362.887,361.495L362.889,361.906L362.889,362.933L363.484,363.002C363.541,363.005 363.617,363.063 363.617,363.17C363.616,363.282 363.53,363.344 363.449,363.365C363.377,363.386 363.342,363.39 363.313,363.388L363.307,363.388L361.47,363.184L361.694,363.884C362.409,363.964 362.971,364.013 363.385,364.036C363.405,364.037 363.422,364.037 363.441,364.037C363.921,364.037 364.307,363.649 364.307,363.17C364.307,362.707 363.943,362.328 363.484,362.304L363.484,362.134C363.732,362.14 364.036,362.153 364.365,362.182C364.397,362.306 364.461,362.458 364.595,362.595C364.736,362.746 364.888,362.863 365.022,362.949L365.016,363.163C365.016,363.163 365.034,363.519 365.001,363.813C364.97,364.111 364.794,364.333 364.148,364.356C363.533,364.377 362.777,364.257 362.777,364.257L362.819,364.711C362.57,364.85 362.322,365.053 362.004,365.336C361.796,365.525 361.589,365.788 361.408,366.083L360.636,364.592C360.797,364.369 360.896,364.101 360.896,363.809C360.896,363.073 360.22,362.475 359.512,362.475C359.037,362.475 358.637,362.688 358.39,363.017L358.507,361.616L346.401,361.616L346.517,363.017C346.272,362.688 345.872,362.475 345.396,362.475C344.686,362.475 344.011,363.073 344.011,363.809C344.011,364.101 344.109,364.369 344.274,364.592L343.5,366.083C343.317,365.788 343.112,365.525 342.902,365.336C342.584,365.053 342.338,364.85 342.087,364.711L342.13,364.257C342.13,364.257 341.373,364.377 340.759,364.356C340.114,364.333 339.937,364.111 339.905,363.813C339.873,363.519 339.894,363.163 339.894,363.163L339.884,362.949C340.018,362.863 340.171,362.746 340.315,362.595C340.447,362.458 340.512,362.306 340.542,362.182C340.874,362.153 341.174,362.14 341.423,362.134L341.423,362.304C340.964,362.328 340.599,362.707 340.599,363.17C340.599,363.649 340.988,364.037 341.467,364.037C341.486,364.037 341.504,364.037 341.521,364.036C341.936,364.013 342.499,363.964 343.213,363.884L343.436,363.184L341.602,363.388L341.594,363.388C341.565,363.39 341.53,363.386 341.459,363.365C341.376,363.344 341.292,363.282 341.29,363.17C341.289,363.063 341.366,363.005 341.423,363.002L342.019,362.933L342.019,361.906L342.024,361.495C342.024,361.495 340.524,361.486 339.819,361.563L339.811,361.388C339.811,361.345 339.729,361.222 339.435,361.286C339.304,361.313 339.15,361.371 339.138,361.502C339.136,361.529 339.135,361.591 339.13,361.677C339.013,361.703 338.888,361.74 338.7,361.812C338.069,362.043 337.344,362.551 336.832,363.556C336.294,364.607 336.279,366.553 337.926,367.763L340.797,369.88L339.512,374.888C339.387,374.733 339.21,374.448 339,374.177L339.678,371.472C339.773,371.078 339.811,370.532 339.6,370.002C339.401,369.509 338.932,369.079 338.153,369.042C337.636,369.015 336.768,369.274 336.471,370.375C336.34,370.865 336.285,371.641 336.694,372.421C336.962,372.931 337.313,373.376 337.904,374.145L338.101,374.399L337.716,375.798C337.643,375.778 337.565,375.763 337.484,375.761C337.003,375.746 336.665,376.127 336.665,376.542C336.665,376.999 337.033,377.361 337.484,377.361C337.777,377.361 338.033,377.211 338.176,376.979C338.302,376.794 338.417,376.313 338.551,375.849L338.732,375.224L339.264,375.912C338.933,377.15 337.726,381.686 337.708,381.756C337.5,382.64 338.291,383.399 339.108,383.395C339.838,383.385 340.537,382.8 340.508,381.979C340.493,381.594 340.342,381.31 340.099,381.124L341.433,379.012L343.945,382.565C344.143,382.848 344.296,382.975 344.323,382.997C344.575,383.254 344.927,383.412 345.317,383.412C346.016,383.412 346.735,382.787 346.735,382.011C346.735,381.237 346.123,380.582 345.315,380.727C345.294,380.732 345.275,380.734 345.255,380.74L343.477,375.657C343.334,375.273 343.138,374.976 342.958,374.806C342.7,374.562 342.325,374.565 342.177,374.572C342.109,374.574 342.019,374.593 341.932,374.614L343.265,371.734L344.935,372.992C345.178,373.189 345.486,373.304 345.82,373.304C345.879,373.304 345.938,373.303 345.991,373.294L346.453,378.024C346.602,379.611 347.372,381.003 348.508,381.984L348.508,381.995L348.522,381.995C349.579,382.9 350.947,383.456 352.454,383.456C355.592,383.456 358.17,381.087 358.455,378.024L358.916,373.294C358.972,373.303 359.028,373.304 359.085,373.304C359.423,373.304 359.73,373.189 359.972,372.992L361.641,371.734L362.974,374.614C362.889,374.593 362.798,374.574 362.731,374.572C362.582,374.565 362.207,374.562 361.95,374.806C361.769,374.976 361.574,375.273 361.432,375.657L359.652,380.74C359.633,380.734 359.614,380.732 359.592,380.727C358.784,380.582 358.173,381.237 358.173,382.011C358.173,382.787 358.893,383.412 359.591,383.412C359.981,383.412 360.332,383.254 360.586,382.997C360.61,382.975 360.764,382.848 360.963,382.565L363.478,379.012L364.808,381.124C364.564,381.31 364.413,381.594 364.399,381.979C364.37,382.8 365.071,383.385 365.8,383.395C366.617,383.399 367.411,382.64 367.199,381.756C367.185,381.686 365.975,377.15 365.645,375.912L366.174,375.224L366.356,375.849C366.492,376.313 366.607,376.794 366.731,376.979C366.876,377.211 367.133,377.361 367.423,377.361C367.877,377.361 368.242,376.999 368.242,376.542C368.242,376.127 367.903,375.746 367.423,375.761Z" style="fill:rgb(35,31,32);fill-rule:nonzero;"/>
            </g>
        </g>
    </g>
</svg>
